<?xml version="1.0" encoding="UTF-8"?>
<svg viewBox="0 0 610 610" xmlns="http://www.w3.org/2000/svg" xmlns:xlink="http://www.w3.org/1999/xlink">
 <g transform="translate(5 -397.36)">
  <path d="m1.538 402.36h596.92a1.538 1.538 0 0 1 1.538 1.538v596.92a1.538 1.538 0 0 1 -1.538 1.538h-596.92a1.538 1.538 0 0 1 -1.538 -1.538v-596.92a1.538 1.538 0 0 1 1.538 -1.538" fill="none" stroke="#4a0" stroke-linejoin="round" stroke-width="10"/>
  <path d="m291.74 475.02c-127.77 0-231.31 103.55-231.31 231.31s103.55 231.31 231.31 231.31 231.31-103.55 231.31-231.31c0-14.887-1.4288-29.34-4.127-43.433l37.34-6.682-41.271-49.722-41.86-49.132-22.208 60.531-21.815 60.727 43.433-7.468c2.2058 11.366 3.341 23.156 3.341 35.179 0 101.72-82.43 184.15-184.15 184.15s-184.15-82.43-184.15-184.15 82.43-184.15 184.15-184.15c59.675 0 112.76 28.335 146.41 72.322l18.277-50.311c-41.939-42.655-100.12-69.178-164.69-69.178z" fill="#4a0"/>
 </g>
</svg>
